<svg xmlns="http://www.w3.org/2000/svg" shape-rendering="geometricPrecision" text-rendering="geometricPrecision" image-rendering="optimizeQuality" fill-rule="evenodd" clip-rule="evenodd" viewBox="0 0 512 511.995"><path fill="#ECCA43" fill-rule="nonzero" d="M256 0c70.689 0 134.693 28.659 181.015 74.984C483.341 121.306 512 185.311 512 256c0 70.684-28.659 134.689-74.985 181.015-46.326 46.322-110.33 74.98-181.015 74.98-70.685 0-134.689-28.658-181.015-74.98C28.659 390.689 0 326.684 0 256c0-70.689 28.659-134.694 74.985-181.016C121.311 28.659 185.315 0 256 0z"/><ellipse fill="#F7E259" cx="256" cy="255.998" rx="250.992" ry="250.991"/><path fill="#F8D548" d="M503.753 215.692A252.691 252.691 0 01506.989 256c0 138.614-112.371 250.988-250.989 250.988S5.007 394.614 5.007 256c0-21.858 2.801-43.056 8.051-63.271l246.435 183.476 244.26-160.513z"/><path fill="#D7925B" fill-rule="nonzero" d="M256 58.922c54.414 0 103.688 22.061 139.353 57.725 35.664 35.661 57.725 84.935 57.725 139.349 0 54.414-22.061 103.688-57.725 139.352-35.661 35.664-84.935 57.726-139.353 57.726-54.414 0-103.688-22.062-139.349-57.726-35.664-35.664-57.725-84.938-57.725-139.352s22.061-103.688 57.725-139.349C152.312 80.983 201.586 58.922 256 58.922z"/><circle fill="#EDA140" cx="256.001" cy="255.997" r="192.069"/><path fill="#C26A34" fill-rule="nonzero" d="M335.21 227.243c0 11.002-1.992 16.44-6.051 16.44h-49.933v105.31c0 2.487-1.73 4.162-5.309 5.119a65.382 65.382 0 01-13.307 1.379c-.558 0-1.14-.016-1.69-.016-.662 0-1.355.032-2.025.032-4.433 0-8.889-.447-13.179-1.515-3.436-.861-5.151-2.631-5.151-4.935V243.77h-49.932c-4.05 0-6.051-5.525-6.051-16.448a42.017 42.017 0 01-.04-1.746c0-3.691.518-7.382 1.515-10.93.988-2.631 2.519-3.946 4.576-3.946h140.526c2.153 0 3.732 1.315 4.632 3.994a41.29 41.29 0 011.459 10.859c0 .59-.015 1.187-.048 1.769l.008-.079zm-146.577-31.779c-4.05 0-6.051-5.525-6.051-16.527-.024-.606-.04-1.22-.04-1.826 0-3.668.51-7.327 1.523-10.851.964-2.631 2.511-3.946 4.568-3.946h140.526c2.153 0 3.715 1.331 4.688 3.993a42.142 42.142 0 011.443 10.923c0 .574-.016 1.14-.032 1.707 0 11.002-2.009 16.527-6.051 16.527H188.633z"/><path fill="#F3DC6B" fill-rule="nonzero" d="M329.384 221.416c0 11.002-1.993 16.44-6.052 16.44h-49.933v105.31c0 2.488-1.729 4.162-5.309 5.119a65.38 65.38 0 01-13.306 1.379c-.558 0-1.141-.016-1.691-.016-.662 0-1.355.032-2.025.032-4.433 0-8.889-.446-13.179-1.515-3.436-.861-5.15-2.631-5.15-4.935V237.943h-49.933c-4.05 0-6.051-5.525-6.051-16.447a42.105 42.105 0 01-.04-1.747c0-3.691.518-7.382 1.515-10.93.989-2.63 2.519-3.946 4.576-3.946h140.526c2.153 0 3.732 1.316 4.632 3.994a41.29 41.29 0 011.459 10.859c0 .59-.015 1.188-.048 1.77l.009-.08zm-146.578-31.779c-4.05 0-6.051-5.525-6.051-16.527-.024-.606-.04-1.22-.04-1.826 0-3.667.51-7.327 1.523-10.851.964-2.631 2.511-3.946 4.568-3.946h140.526c2.153 0 3.715 1.331 4.688 3.994a42.134 42.134 0 011.411 12.629c0 11.002-2.009 16.527-6.051 16.527H182.806z"/></svg>